# xmcd
#
# Track frame offsets: 
#        150
#        20175
#        37897
#        61055
#
# Disc length: 1137 seconds
#
# Revision: 2
# Processed by: cddbd v1.5.1PL0 Copyright (c) Steve Scherf et al.
# Submitted via: ExactAudioCopy v0.95a4
#
DISCID=2a046f04
DTITLE=Billy Ocean - The Colour Of Love
DYEAR=1988
DGENRE=R&B
TTITLE0=The Colour Of Love
TTITLE1=Suddenly
TTITLE2=Get Outta My Dreams, Get Into My Car
TTITLE3=When The Going Gets Tough, The Tough Get Going
EXTD=
EXTT0=
EXTT1=
EXTT2=
EXTT3=
PLAYORDER=
